<svg width="24" height="24" viewBox="0 0 24 24" fill="none" xmlns="http://www.w3.org/2000/svg">
<g clip-path="url(#clip0_5995_1022)">
<path fill-rule="evenodd" clip-rule="evenodd" d="M8 4C6.93913 4 5.92172 4.42143 5.17157 5.17157C4.42143 5.92172 4 6.93913 4 8V16C4 17.0609 4.42143 18.0783 5.17157 18.8284C5.92172 19.5786 6.93913 20 8 20H16C17.0609 20 18.0783 19.5786 18.8284 18.8284C19.5786 18.0783 20 17.0609 20 16V8C20 6.93913 19.5786 5.92172 18.8284 5.17157C18.0783 4.42143 17.0609 4 16 4H8Z" fill="white"/>
<path fill-rule="evenodd" clip-rule="evenodd" d="M8 4C6.93913 4 5.92172 4.42143 5.17157 5.17157C4.42143 5.92172 4 6.93913 4 8V16C4 17.0609 4.42143 18.0783 5.17157 18.8284C5.92172 19.5786 6.93913 20 8 20H16C17.0609 20 18.0783 19.5786 18.8284 18.8284C19.5786 18.0783 20 17.0609 20 16V8C20 6.93913 19.5786 5.92172 18.8284 5.17157C18.0783 4.42143 17.0609 4 16 4H8ZM16.561 9C16.6946 9.14435 16.7688 9.33381 16.7688 9.5305C16.7688 9.72719 16.6946 9.91665 16.561 10.061L11.561 15.237C11.4934 15.303 11.4119 15.3531 11.3224 15.3835C11.233 15.414 11.1378 15.424 11.044 15.413C10.9684 15.4152 10.8932 15.4021 10.8227 15.3746C10.7523 15.3472 10.6881 15.3058 10.634 15.253L10.575 15.194L10.559 15.179L10.544 15.163L8 12.561C7.8593 12.4203 7.78026 12.2295 7.78026 12.0305C7.78026 11.8315 7.8593 11.6407 8 11.5C8.1407 11.3593 8.33152 11.2803 8.5305 11.2803C8.72948 11.2803 8.9203 11.3593 9.061 11.5L9.686 12.125L11.086 13.588L15.5 9C15.6444 8.86639 15.8338 8.79218 16.0305 8.79218C16.2272 8.79218 16.4166 8.86639 16.561 9Z" fill="#00A296"/>
</g>
<defs>
<clipPath id="clip0_5995_1022">
<rect width="24" height="24" fill="white"/>
</clipPath>
</defs>
</svg>
