<svg width="24" height="24" viewBox="0 0 24 24" fill="none" xmlns="http://www.w3.org/2000/svg">
<g id="default">
<g clip-path="url(#clip0_7969_21217)">
<rect width="24" height="24" rx="12" fill="#EEF0F5"/>
<path id="Caminho 6304" d="M15.943 11.761C15.9807 11.852 16.0001 11.9496 16.0001 12.0482C16.0001 12.2469 15.9213 12.4376 15.7809 12.5782C15.6405 12.7189 15.45 12.7981 15.2513 12.7984H8.75012C8.6516 12.7984 8.55404 12.779 8.46301 12.7413C8.37199 12.7036 8.28928 12.6483 8.21962 12.5787C8.14995 12.509 8.09469 12.4263 8.05699 12.3353C8.01928 12.2442 7.99988 12.1467 7.99988 12.0482C7.99988 11.9496 8.01928 11.8521 8.05699 11.761C8.09469 11.67 8.14995 11.5873 8.21962 11.5177C8.28928 11.448 8.37199 11.3927 8.46301 11.355C8.55404 11.3173 8.6516 11.2979 8.75012 11.2979H15.2498C15.3484 11.2979 15.4459 11.3173 15.537 11.355C15.628 11.3926 15.7107 11.4479 15.7804 11.5176C15.8501 11.5873 15.9053 11.67 15.943 11.761Z" fill="#A8ADB7"/>
</g>
</g>
<defs>
<clipPath id="clip0_7969_21217">
<rect width="24" height="24" rx="12" fill="white"/>
</clipPath>
</defs>
</svg>
