<svg width="24" height="24" viewBox="0 0 24 24" fill="none" xmlns="http://www.w3.org/2000/svg">
<g id="default">
<g clip-path="url(#clip0_7368_6461)">
<path id="Caminho 6304" d="M16.0004 12.0001C16.0005 11.9015 15.9811 11.804 15.9434 11.7129C15.9057 11.6219 15.8505 11.5392 15.7808 11.4695C15.7111 11.3998 15.6284 11.3446 15.5374 11.3069C15.4463 11.2692 15.3487 11.2498 15.2502 11.2498H12.7499L12.7499 8.7236C12.743 8.52939 12.6611 8.34542 12.5212 8.21046C12.3814 8.07549 12.1947 8.00006 12.0003 8.00006C11.806 8.00006 11.6193 8.07549 11.4795 8.21046C11.3396 8.34542 11.2577 8.52939 11.2508 8.7236L11.2508 11.2498H8.75048C8.65196 11.2498 8.5544 11.2692 8.46338 11.3069C8.37236 11.3446 8.28965 11.3999 8.21998 11.4696C8.15032 11.5392 8.09506 11.6219 8.05735 11.713C8.01965 11.804 8.00024 11.9015 8.00024 12.0001C8.00024 12.0986 8.01965 12.1961 8.05735 12.2872C8.09506 12.3782 8.15032 12.4609 8.21998 12.5306C8.28965 12.6002 8.37236 12.6555 8.46338 12.6932C8.5544 12.7309 8.65196 12.7503 8.75048 12.7503H11.2508L11.2508 15.2498C11.2508 15.3483 11.2702 15.4459 11.3079 15.5369C11.3456 15.6279 11.4009 15.7107 11.4706 15.7803C11.5402 15.85 11.6229 15.9052 11.7139 15.943C11.805 15.9807 11.9025 16.0001 12.0011 16.0001C12.0996 16.0001 12.1971 15.9807 12.2882 15.943C12.3792 15.9052 12.4619 15.85 12.5316 15.7803C12.6012 15.7107 12.6565 15.6279 12.6942 15.5369C12.7319 15.4459 12.7513 15.3483 12.7513 15.2498L12.7513 12.7503H15.2516C15.4504 12.75 15.6409 12.6708 15.7813 12.5301C15.9217 12.3895 16.0005 12.1988 16.0004 12.0001Z" fill="#00A296"/>
</g>
<rect x="0.5" y="0.5" width="23" height="23" rx="11.5" stroke="#00A296"/>
</g>
<defs>
<clipPath id="clip0_7368_6461">
<rect width="24" height="24" rx="12" fill="white"/>
</clipPath>
</defs>
</svg>
